<?xml version="1.0" encoding="UTF-8"?><svg xmlns="http://www.w3.org/2000/svg" xmlns:xlink="http://www.w3.org/1999/xlink" height="461.4" preserveAspectRatio="xMidYMid meet" version="1.0" viewBox="0.0 0.0 430.3 461.4" width="430.3" zoomAndPan="magnify"><g id="change1_1"><path d="M202.87,458.8c-66.82-33.1-108.04-64.34-129.72-98.31c-18.25-28.62-20.27-56.61-19.31-80.6 c-12.47-2.08-25.2-4.77-37.88-7.99L0,267.87l53.79-83.76c-7.86-54.47-26.47-79.38-26.66-79.62l-8.28-10.4l11.4-7.01 c52.5-32.3,77.32-80.1,77.57-80.58L111.13,0h194l3.3,6.49c0.25,0.48,25.06,48.3,77.58,80.61l11.46,7l-8.42,10.5 c-0.14,0.18-17.54,23.56-25.82,74.68l18.54-19.58c2.81-2.97,6.77-4.61,11.15-4.61c2.73,0,5.65,0.64,8.67,1.89 c4.42,1.83,9.22,5.07,13.49,9.11c4.29,4.06,7.79,8.67,9.85,12.98c5.36,11.2,0.11,18.07-1.63,19.91l-50.47,53.32 c14.4,18.57,17.61,32.3,9.53,40.84l-6.85,7.23c-2.13,2.28-6.01,5.02-12.3,5.02c-0.4,0-0.81-0.01-1.22-0.04 c-1.47,16.62-6.43,40.2-26.66,66.16c-22.98,29.5-62.86,58.05-121.9,87.29l-5.26,2.6L202.87,458.8z" fill="#36E9FD"/></g><g id="change2_1"><path d="M103.02,342.5c-2.25,4.12-6.32,11.99-9.95,21.12c-24.21-30.69-26.28-59.61-24.38-90.83 c7.04,0.94,13.99,1.7,20.85,2.24c-1.06,17.68-0.67,31.84,3.86,46.08c-2.51,4.66-4.63,9.55-6.5,14.55l-1.01,2.74l2.88,0.68 L103.02,342.5z M296.29,14.47H119.97c-4.61,8.44-30.04,52-79.76,83.45c5.12,7.51,20.14,32.97,27.51,81.58l16.5-25.69 c-3.97-17.56-9.2-33.56-15.61-47.53l-0.86-1.9l1.66-1.27c32.06-24.45,52.42-52.15,61.68-66.5l0.77-1.19h152.52l0.77,1.19 c9.27,14.34,29.62,42.05,61.68,66.5l1.66,1.27l-0.86,1.9c-3.69,8.09-7.04,16.92-9.96,26.32l4.23,1.01l-1.01,2.76 c-0.25,0.67-3.06,8.18-9.31,19.44c-3.76,17.18-6.26,35.81-7.39,55.4c-0.16,2.6-0.26,5.24-0.31,8c3.34,2.2,6.32,4.38,8.52,6.07 l12.72-13.44c4.21-69.91,24.74-104.86,30.9-113.9C326.33,66.47,300.9,22.91,296.29,14.47z" fill="#889BAA"/></g><g id="change3_1"><path d="M334.65,211.81c-0.98,16.63,0.24,32.18,1.41,47.22c2.34,29.81,4.37,55.56-10.8,82.71 c-16.5,29.59-52.85,58.62-111.13,88.73l-6.01,3.11l-6.01-3.11c-58.28-30.11-94.62-59.14-111.13-88.73 c-15.17-27.16-13.14-52.9-10.81-82.7c1.19-15.05,2.41-30.6,1.43-47.23c-2.91-49.37-13.85-82.27-22.51-101.17l-4.27-9.29l27.67,6.48 l57-58.97l-13.45-23.7l0.13-0.21h163.91l0.22,0.34l-8.77,15.36l60.49,65.35l19.28-4.38l-4.15,9.03 C348.5,129.54,337.55,162.44,334.65,211.81z" fill="#38485F"/></g><g id="change4_1"><path d="M139.5,48.85l-57,58.97l-27.67-6.48l-0.1-0.24l8.34-6.35c17.14-13.06,30.81-27.12,41.1-39.38l10.16,4.15 l-5.35-10.05c1.19-1.51,2.33-2.98,3.42-4.41l5.33,1.78l-1.9-6.44c2.59-3.57,4.75-6.78,6.5-9.49l3.73-5.77L139.5,48.85z M353.19,94.76c-30.76-23.44-50.32-50.06-59.25-63.84l-3.64-5.64l-8.77,15.36l60.49,65.35l19.28-4.38l0.22-0.5L353.19,94.76z" fill="#012130"/></g><g id="change5_1"><path d="M330,282.21l-47.99-16.8c-0.59,2.53-1.33,4.92-2.12,7.37c-0.6,1.66-1.14,3.35-1.85,4.96 c-0.67,1.64-1.33,3.27-2.11,4.86c-2.93,6.4-6.4,12.55-10.46,18.28c-4.11,5.68-8.44,11.2-13.51,16.03c-1.23,1.23-2.43,2.49-3.8,3.59 l-3.95,3.4c-1.28,1.16-2.76,2.12-4.15,3.15c-1.41,1.02-2.81,2.04-4.24,3.01c2.38-2.54,4.89-4.89,7.21-7.42 c2.26-2.59,4.67-5.01,6.78-7.71l3.25-3.95l3.05-4.1c1.06-1.33,1.99-2.75,2.93-4.16c0.93-1.43,1.95-2.77,2.8-4.25l2.62-4.35 c0.84-1.48,1.61-2.98,2.42-4.46c0.84-1.48,1.51-3.02,2.28-4.53c0.77-1.51,1.43-3.06,2.09-4.61c1.36-3.09,2.47-6.27,3.59-9.44 c0.99-3,1.88-6.14,2.51-9.08l-7.19-27.04c-7.59,16.84-19.46,31.74-34.24,42.82c4.14-5.75,8.08-12.63,10.93-19.11 c-11.01,12.43-25.3,22.2-40.57,28.74c2.22-3.98,3.99-8.62,4.23-13.18c5.65-4.06,10.78-9.21,15.05-14.7 c-6.07,4.74-13.34,9.14-20.53,12.12c-15.84,13.01-39.41,30.13-64.68,40.69l37.6,28.91L175,355.97l19.15,6.56l-2.85,74.1 c5.38,2.85,10.98,5.72,16.83,8.64c12.92-6.43,24.64-12.71,35.31-18.86l-5.72-19.28l9.04,7.17l-7.93-16.9l7.16-6.66 c0-29.19,17.67-45.83,17.67-45.83c-6.91,13.06-8.44,26.12-8.44,26.12c12.55-31.5,43.53-58.33,43.53-58.33 c6.39-6.95,13.24-13.47,20.74-19.17c-6.4,6.9-12.55,13.94-18.43,21.16c-5.88,7.24-11.45,14.71-16.19,22.64 c-4.71,7.93-8.82,16.26-11.16,24.98c-0.58,2.22-1.03,4.29-1.33,6.57l-0.82,6.96l-1.7,13.93l-0.13,0.99l-0.75,0.65l-7.97,7.04 c0.96,2.68,1.86,5.37,2.71,8.08c0.65,2.09,1.26,4.21,1.85,6.33c66.72-43.52,80.06-79.94,82.22-111.68 C339.48,289.98,331.63,283.49,330,282.21z M231.71,306.46c-1.86,1.92-3.74,3.8-5.72,5.59c-4.89,4.5-10.33,8.45-16.02,11.9 c-1.45,0.84-2.89,1.66-4.36,2.46c-1.49,0.75-3.02,1.41-4.53,2.12l-2.28,0.99c-0.77,0.3-1.56,0.58-2.36,0.84 c-1.58,0.52-3.15,1.05-4.74,1.49c1.35-0.98,2.72-1.9,4.08-2.79l2.05-1.33l1.98-1.44c1.32-0.96,2.68-1.85,3.98-2.8 c1.27-1.01,2.57-1.98,3.86-2.94c3.83-2.98,7.62-6.03,11.28-9.23c-0.43,0.13-0.86,0.26-1.3,0.39c-4.76,1.39-9.59,2.51-14.46,3.35 c-2.43,0.38-4.87,0.82-7.32,1.09l-3.66,0.45l-3.69,0.29c-2.45,0.21-4.92,0.2-7.37,0.24c-2.46-0.03-4.92-0.18-7.37-0.37l14.42-2.47 c4.78-0.81,9.5-1.82,14.19-2.97c4.66-1.23,9.28-2.57,13.81-4.14c1.14-0.39,2.26-0.79,3.38-1.23c1.13-0.41,2.24-0.84,3.35-1.28 c2.16-0.88,4.4-1.86,6.36-2.83c2.42-2.32,4.82-4.67,7.19-7.05c4.58-4.61,9.06-9.33,13.62-14.13c-2.77,6.05-6.49,11.58-10.54,16.84 c-2.43,3.11-5.06,6.09-7.81,8.94l0.01,0.01C231.75,306.44,231.73,306.46,231.71,306.46z M314.36,361.03 c-7.96,10.88-20.36,19.72-33.39,23.18c8.61-7.98,17.58-17.05,24.04-26.84c-5.67,3.52-11.94,6.03-18.47,7.46 c16.03-10.88,29.67-25.23,39.71-41.79C326.87,336.51,322.33,350.17,314.36,361.03z M169.7,355.85c-6.05-2.33-13.04-2.93-19.28-1.54 c-0.47-4.95-0.85-9.74-1.32-14.7c-1.78,4.46-3.19,9.63-4.48,14.27c-3.06-7.96-5.09-16.52-5.75-25.01c-0.8,2.91-1.27,6.01-2.07,8.91 c-5.63-2.64-11.35-4.29-17.47-5.34c0.73-5.01,2.34-10.27,4.5-14.85c-2.57,2.84-5.25,6.06-7.83,8.9c2.42-8.44,6.48-16.41,11.84-23.36 l-3.34-1.87l1.6-2.36c1.06-1.56,1.94-3.27,2.67-5.04l-4.14-6.23c-2.93,3-5.78,6.18-8.49,9.41c-3.4,4.06-6.61,8.27-9.62,12.6 c-3.05,4.32-5.76,8.85-8.28,13.47c-2.04,3.76-3.8,7.64-5.35,11.6l32.76,7.84l1.58,0.38l0.37,1.58l2.81,12.49 c4.03,0.39,7.98,0.94,11.94,1.64c4.58,0.77,9.14,1.74,13.65,2.88c4.5,1.16,8.98,2.47,13.35,4.11c4.35,1.66,8.6,3.64,12.54,6.1 c-4.45-1.36-8.86-2.53-13.31-3.59c-4.11-0.92-8.22-1.77-12.37-2.5c-0.34,6.75-0.27,13.52,0.24,20.26 c-6.11-2.55-12.55-5.54-18.27-8.87c6.82,9.88,16.74,18.19,28.05,22.21c-8.83,0.63-18.17-0.33-26.25-3.98 c6.05,5.22,13.1,9.34,20.74,11.65c0.14,4.61,0.42,8.95,1.44,13.31c7.42,4.49,15.39,9.04,23.99,13.69l2.6-67.68l-19.78-6.77 L169.7,355.85z M409.81,181.94c-0.05-0.08-0.12-0.16-0.18-0.25c-0.18-0.25-0.37-0.5-0.56-0.76c-0.12-0.14-0.24-0.29-0.35-0.43 c-0.16-0.2-0.31-0.39-0.48-0.6c-0.17-0.21-0.37-0.42-0.55-0.63c-0.13-0.16-0.25-0.3-0.39-0.45c-0.24-0.26-0.48-0.52-0.75-0.8 c-0.09-0.09-0.18-0.2-0.29-0.3c-0.37-0.38-0.75-0.75-1.14-1.13c-5.48-5.2-10.37-7.08-12.21-7.08c-0.3,0-0.52,0.05-0.65,0.14 c-0.58,0.97,1.3,6.41,7.67,12.43c6.32,5.99,11.84,7.58,12.84,6.95C413.15,188.34,412.38,185.55,409.81,181.94z M388.45,175.65 c-0.24-0.47-0.42-0.92-0.59-1.35l-4.99,5.27c0.07,2.32,0.51,8.73,3.22,16.82c2.8,0.47,9.53,1.36,18.53,1.26l3.72-3.93 c-3.94-1.31-8.35-4.33-12.03-7.81C392.84,182.62,390.05,178.97,388.45,175.65z M392.6,210.34l7.11-7.5 c-4.78-0.12-8.69-0.5-11.46-0.84C389.42,204.7,390.86,207.5,392.6,210.34z M366.6,196.76c-0.1,3.48,0.24,17.24,11.58,28.83 l10.71-11.31c-7.53-11.77-10.04-22.93-10.86-29.59L366.6,196.76z M361.57,202.08l-12.32,13c5.51,2.74,12.75,3.35,17.3,3.43 C363.28,212.29,362.02,206.38,361.57,202.08z M367.58,223.76c-2.76,0-6.78-0.18-11.01-0.96c0.94,4.23,3.06,11.36,7.58,17.6 l10.43-11.01c-1.85-1.86-3.44-3.77-4.82-5.68C369.17,223.74,368.44,223.76,367.58,223.76z M345.54,219.01l-5.58,5.89 c0.05,3.06,1.02,14.27,11.37,29.04l9.15-9.67c-6.6-8.66-8.86-18.85-9.53-22.88C349.06,220.77,347.23,219.99,345.54,219.01z M338.31,247.17c1.77,1.66,3.46,2.98,5.01,4.02c-5.29-8.97-7.36-16.37-8.14-21.25l-4.52,4.78 C330.08,235.69,331.95,241.14,338.31,247.17z M108.65,276.02l-2.33-0.05l-0.64-7.11c-3.39-0.12-6.52-0.55-8.48-0.86l-2.3,5.16 c-1.05,16.07-1.01,29.05,2.13,41.59c1.65-2.76,3.36-5.46,5.21-8.08c3.11-4.49,6.41-8.82,9.91-13c3.05-3.63,6.18-7.11,9.55-10.5 l-4.71-7.08c-0.29,0-0.58,0.01-0.88,0.01C113.65,276.11,111.16,276.07,108.65,276.02z M296.69,212.07c0.48-0.5,1.02-0.9,1.61-1.22 c4.74-2.53,12.89,0.76,20.43,5.13c0.07-1.73,0.14-3.43,0.24-5.1c0.86-14.59,2.46-28.66,4.75-42.02 c-7.58,11.66-17.94,25.31-31.69,38.98c-5.6,5.56-11.98,11.28-19.15,16.95l9.34,35.15l0.25,0.09l14.75-15.6 c-1.13-1.58-2.21-3.15-3.17-4.67c-6.23-9.93-7.66-16.8-4.21-20.44L296.69,212.07z M332.59,131.37c2.79-8.99,5.94-17.52,9.44-25.38 C312.57,83.18,293,58.14,281.54,40.65H134.71c-11.45,17.5-31.02,42.52-60.47,65.35c5.56,12.49,10.23,26.48,13.93,41.66l41.66-64.86 L332.59,131.37z" fill="#EDF2F8"/></g><g id="change2_2"><path d="M111.11,270.83c89.38,1.43,145.56-35.32,177.06-66.55c20.84-20.67,33.9-41.67,41-55.15l-41.29-7.54 c-9.38,18.7-25.42,30.39-25.42,30.39c7.17-10.59,9.42-26.97,9.42-26.97c-14.27,30.25-51.26,51.96-52.42,52.64l21.83-5.86 c-38.99,27.89-88.89,36.2-90.44,36.45c50.89-20.81,65.5-67.52,65.5-67.52c-7.05,11.77-26.97,24.84-27.6,25.25 c16.75-18.78,22.37-44.03,22.37-44.03c-13.44,29.37-54.51,45.75-54.51,45.75c42.68-44.04,23.03-87.57,23.03-87.57 c-20.48,25.64-53.95,28.56-68.06,28.56c-2.13,0-3.8-0.07-4.93-0.13L23.04,258.77c23.28,5.72,45.99,9.46,67.58,11.11l17.01-38.18 L111.11,270.83z M216.53,230.42c6.05-3.13,12.09-6.24,17.84-9.84c2.93-1.7,5.77-3.57,8.64-5.39c2.79-1.92,5.63-3.78,8.34-5.82 c5.52-3.91,10.85-8.13,15.98-12.58c5.18-4.38,10.09-9.07,14.89-13.87c9.5-9.72,18.43-20.1,26.01-31.58 c-2.76,6.32-6.41,12.22-10.25,17.98c-3.93,5.69-8.18,11.18-12.77,16.37c-9.16,10.4-19.54,19.78-30.8,27.92 c-11.26,8.14-23.43,15.02-36.15,20.52c-12.75,5.44-26.04,9.55-39.6,11.95C191.67,241.57,204.33,236.45,216.53,230.42z M110.89,167.88c0,0,19.03,1.36,34.73-6.83c0,0-16.99,2.02-29.6-4.1c0,0,33.56-3.08,55.52-15.71c0,0-16.08,42.34-76.6,53.27 L110.89,167.88z M300.91,232.53c-2.8-4.46-4.62-8.3-5.47-11.5l-1.78,1.88c-0.97,1.02-0.47,5.6,4.84,14.06 c5.26,8.36,13.59,18.13,23.47,27.47c6.73,6.37,13.59,11.99,20.02,16.45l2.89-3.61v-0.01c-6.52-4.59-13.3-10.21-19.67-16.24 C315.02,251.37,306.39,241.25,300.91,232.53z M329.69,245.31c-0.68-0.9-1.3-1.83-1.85-2.75c-0.01-0.04-0.03-0.05-0.03-0.05 c-2.59-4.4-3.51-8.7-0.96-11.4l1.92-2.02c-16.74-12.81-26.65-15.16-28.28-13.43c-0.97,1.02-0.47,5.61,4.84,14.07 c5.25,8.36,13.59,18.13,23.47,27.47c1.26,1.19,2.49,2.32,3.7,3.42c9.06,7.75,21.97,7.12,21.97,7.12 C342.63,262.37,333.46,250.69,329.69,245.31z M274.54,241.77c-1.13-3.7-2.64-8.32-4.81-11.52c-14.76,12.4-33.16,21.55-51.5,27.49 c-8.64,2.79-12.86,11.1-20.52,15.98c0.51,9.04-0.93,18.19-4.18,26.65c13.83-3.96,26.1-10.66,36.68-20.4 c-2.15,4.3-4.59,8.79-6.74,13.1C246.04,282.42,263.62,264.22,274.54,241.77z M243.96,323.42c10.15-5.27,19.66-12.69,26.95-21.5 c-1.97,5.64-3.92,11.07-6.77,16.31c11.5-10.28,21.42-23.66,27.45-37.86c13.44,1.3,26.95,1.96,40.46,1.98 c-17.58-6.5-34.48-13.16-52.06-19.66C274.73,286.27,262.39,307.81,243.96,323.42z M158.42,311.93c11.43,8.07,25.8,11.03,39.45,7.96 c-4.46,6.26-10.13,11.79-16.13,16.6c13.14,0.6,25.68-3.68,36.44-11.25c10.75-7.57,18.51-18.8,22.37-31.37 C214.8,305.43,186.65,311.63,158.42,311.93z M172.23,358.55c-0.08-2.56-0.86-5.19-0.94-7.75c-13.28-13.86-27.04-28.08-40.32-41.94 c-0.64-6.29-1.36-12.7-0.42-18.95c-2.23-1.77-4.96-2.9-7.19-4.67c-3.07,3.42-5.62,6.05-7.93,10.02 c-5.02,8.61-9.04,17.81-11.95,27.34c4.23-5.13,8.48-10.16,13.48-14.54c-3.13,8.09-5.36,16.77-6.69,25.34 c8.97,2.43,18.06,5.18,26.62,8.79c2.14,6.94,3.68,13.76,5.82,20.69c2.47,0.61,4.3,0.59,6.77,1.2c4.24-5.09,10.07-7.03,16.57-5.76 c0.16,1.37-0.08,2.91,0.08,4.27c8.6,2.25,16.92,4.8,25.34,7.64c0.03-2.25-0.67-3.69-1.29-5.85 C184.26,362.5,178.15,360.42,172.23,358.55z M176.88,402.24c-5.93-3.17-10.93-7.5-15.4-12.52c-0.31-8.19-0.16-16.4,0.46-24.57 c-2.48-0.29-4.23-1.32-6.71-1.61c-1.24,2.75-2.48,6.06-3.72,8.81c-4.83-0.81-10.19-1.53-15.08-1.88 c-1.15,6.77-1.93,14.11-3.08,20.88c6.5,15.71,19.74,28.58,35.39,35.22c-2-6.78-2.18-14.17-1.6-21.22 C170.56,405.41,174,404.12,176.88,402.24z M308.5,303.47c-16.08,9.59-30.86,22.48-42.25,37.34c0.03-1.81,0.78-3.55,1.32-5.27 c-15.9,10.93-26.83,29.59-28.21,48.84c-2.42,2.21-4.42,4.09-7.45,5.35c0.36,4.47,1.57,9.05,3.25,13.22 c-2.63-1.39-4.48-2.86-7.11-4.25c1.24,11.98,4.78,23.72,10.38,34.38c4.54-3.94,9.67-7.56,15.15-10.05 c-1.65-10.39-0.12-21.08,2.93-31.14c3.05-10.06,7.6-19.6,12.13-29.09c5.69-11.93,11.42-23.93,19.17-34.63 C294.01,319.6,301.92,311.75,308.5,303.47z M276.89,364.97c4.06,2.17,8.14,3.43,12.64,2.47c-4.06,7.91-9.93,15.15-16.3,21.35 c18.12-2.4,34.58-10.24,45.52-24.87s14.84-32.58,7.47-49.3C314.9,335.56,297.59,353.22,276.89,364.97z M339.76,250.6 c0.68,1.13,1.74,2.39,3.03,2.12c0.85-0.17,1.44-1,1.6-1.85c0.16-0.85-0.03-1.73-0.23-2.57c-1.52-6.26-4.06-12.23-6.81-18.06 c-0.72-1.52-2.91-4.34-4.73-2.34c-1.09,1.2,0.18,4.34,0.48,5.65C334.48,239.58,336.55,245.3,339.76,250.6z M344.86,216.52 c-0.88,2.13-2.94,3.22-4.88,4.46c2.54,1.85,5.42,3.26,8.44,4.12c0.98,9.41,4.53,18.68,10.88,25.71c1.57-2.19,2.41-4.33,3.99-6.53 c-5.1-7.39-8.5-16.2-9.6-25.11C351.03,217.77,347.82,216.95,344.86,216.52z M366.1,221.58c-2.91-0.12-5.83-0.25-8.74-0.37 c-0.61-0.03-1.26-0.04-1.78,0.28c-0.46,0.29-0.73,0.81-0.86,1.35c-0.49,2.05,0.98,4.18,2.88,5.1c1.9,0.92,4.11,0.9,6.21,0.76 c2.16-0.15,7.65-0.26,8.2-3.04C372.61,222.55,368.18,221.67,366.1,221.58z M363.61,219.53c1.06,0.78,2.7,0.91,3.6-0.05 c1-1.07,0.61-2.79,0.16-4.18c-1.87-5.77-3.33-11.97-5.74-17.52c-6.63,3.24-2.13,13.44-0.15,18.49 C361.97,217.49,362.56,218.75,363.61,219.53z M386.81,210.24c-2.43-10.61-5.02-20.18-7.45-30.79c-3.82,2.89-7.34,6.17-10.49,9.79 c-1.47,1.69-2.88,3.48-3.74,5.55c-1.49,3.58-1.22,7.7-0.04,11.39c1.18,3.69,3.33,7.64,5.34,10.96c-1.03-6.61-0.6-13.41,0.6-20 c1.52,5.63,4.61,10.84,8.83,14.86c-2.26-5.93-3.34-12.32-3.13-18.67C379.69,199.2,383.06,204.85,386.81,210.24z M398.54,200.61 c-1.07-0.43-2.24-0.51-3.38-0.59c-1.51-0.1-3.02-0.2-4.53-0.3c-0.88-0.06-1.78-0.11-2.64,0.13c-0.85,0.24-1.65,0.84-1.89,1.69 c-0.36,1.28,0.66,2.56,1.78,3.28c2.21,1.41,14.13,3.21,12.95-1.81C400.56,201.89,399.6,201.04,398.54,200.61z M405.62,188.87 c-7.2-3.52-13.36-9.14-17.52-16c-0.29-0.48-3.08,1.41-3.31,1.84c-0.65,1.2-0.14,1.94,0.31,3.21c0.9,2.57,2.34,5.03,3.9,7.24 c3.18,4.48,7.45,8.2,12.38,10.65c1.65,0.82,3.46,1.51,5.29,1.26c1.82-0.25,3.59-1.74,3.55-3.58 C410.17,191.19,407.68,189.87,405.62,188.87z M399.69,183.25c-0.07-2.05-0.17-4.3,0.7-6.22c0.65-1.44,2.55-2.68,2.47-4.39 c-0.16-3.22-6.54-5.11-9.06-5.76c-0.76-0.2-1.61-0.35-2.29,0.04c-1.07,0.6-1.13,2.11-0.93,3.32 C391.47,175.64,394.92,180.56,399.69,183.25z" fill="#889BAA"/></g><g id="change3_2"><path d="M137.7,275.32c27.98-1.99,52.36-7.76,73.44-15.72c-13.73,12.11-39.63,32.98-68.23,45.92l-10.97-6.14 C136.61,290.87,137.53,280.11,137.7,275.32z M330.4,152.35c0.99-3.54,1.84-6.51,2.83-10.05c-59.93-19.42-121.54-36.41-182.9-50.7 c-13.05,10.65-26.69,19.78-41.63,27.55c-2.85,5.69-5.9,11.66-8.75,17.34c18.32,2.65,37.29,0.65,54.65-5.77 c-4.98,5.51-12.04,9.37-19.15,11.52c8.3,0.09,16.62-1.09,24.6-3.36c-17.11,8.02-36.08,12.37-54.97,11.83 c3.21,5.46,7.23,9.56,13.25,11.56c-4.39,1.22-10.14,1.38-14.33-0.41c-6.96,15.04-17,28.94-26.93,42.2 c28.46,1,58.18-9.49,79.27-28.62c-3.49,9.55-9.92,17.76-17.81,24.18c17.93-3.64,35.44-11.02,50.16-21.89 c-5.02,5.68-9.9,11.5-14.92,17.18c8.02-1.76,15.36-4.83,22.47-8.94c-16.7,21.35-41.18,37.68-67.22,45.2 c47.38,5.21,97.43-13.93,129.58-49.12c-3.64,1.02-8.19,2.56-11.83,3.58c3.53-2.85,7.38-6.4,10.91-9.24 c0.46,0.57,0.67,1.09,1.13,1.66c12.95-8.29,24.33-18.48,33.76-30.62c1.46,0.33,2.92,0.63,4.38,0.92 c-26.56,40.59-64.51,73.65-108.39,94.33c49.96-13.53,94.23-47.67,120.15-92.46C315.9,151.16,323.14,151.76,330.4,152.35z M128.67,266.2c-1.48-4.78-2-9.57-3.48-14.35c-1.93,4.21-3.55,8.45-5.48,12.66c-2.58-16.74-4.17-33.45-6.75-50.18 c-7.8,13.28-15.57,26.65-23.37,39.93c-0.09-6.6,1.01-13.68,0.92-20.28c-3.98,6.67-7.34,12.51-11.32,19.18 c-18.7,4.06-39.33,5.9-58.44,4.86c23.3,8.89,46.54,14.72,71.48,15.07c1.23-3.31,2.76-6.48,3.98-9.79c2.73-0.11,6.47,0.3,9.19,0.19 c1.22,3.09,3.24,6.71,4.46,9.8c25.5-0.31,50.89-3.94,75.8-9.42C166.87,267.17,147.63,268.3,128.67,266.2z M352.12,262.3 c-7.21-5.77-14.49-11.61-20.15-18.9c-1.63-2.1-3.16-4.42-3.5-7.06c-0.34-2.64,0.86-5.64,3.34-6.6c-1.98-1.91-3.39-3.45-5.66-5 c-4.25,2.82-5.73,8.64-4.69,13.63c1.04,4.99,4.13,9.31,7.45,13.17c3.07,3.57,6.42,6.92,10,9.98c-5.47-1.39-10.84-3.95-14.89-7.88 c2.31,5.14,5.58,10.23,10.03,13.68c-1.54,1.99-3.62,3.9-5.16,5.9c5.88,5.5,11.6,10.95,17.48,16.45c5.12-7.17,10.17-13.77,15.3-20.94 C358.41,266.97,355.03,264.63,352.12,262.3z" fill="#38485F"/></g><g id="change1_2"><path d="M134.62,272.62c28.03-1.66,56.47-6.87,82.65-17.02c-2.45,5.59-7.46,9.59-12.52,13.01 c-5.06,3.41-10.15,6.11-14.06,10.79c-10.23,2.75-21.11,4.01-31.52,2.03c2.31,2.16,4.77,4.4,7.7,5.6 c-10.89,0.06-21.79-3.1-30.96-8.98C135.52,276.15,135.02,274.5,134.62,272.62z M23.04,258.77l23.31-23.81v11.11l27.89-48.95 L61.28,210.3l34.89-65.4L23.04,258.77z" fill="#36E9FD"/></g><g id="change4_2"><path d="M417.48,182.63c-1.64-3.42-4.51-7.17-8.08-10.56c-3.56-3.37-7.46-6.03-10.98-7.49 c-6.21-2.58-9.36-0.62-10.68,0.77l-35.71,37.72c6.11-72,30.35-103.33,30.6-103.64l2.57-3.2l-3.49-2.14 c-55.17-33.94-80.36-83.39-80.61-83.89l-1.01-1.99h-183.9l-1.01,1.99c-0.25,0.5-25.38,49.91-80.6,83.88l-3.48,2.14l2.55,3.2 c0.21,0.26,20.69,26.69,28.73,86.56l-49.25,76.69l4.87,1.23c14.95,3.79,29.91,6.82,44.46,8.99c-1.52,24.65-1.35,53.35,17.65,83.14 c20.84,32.66,61.01,62.96,126.43,95.36l1.61,0.79l1.61-0.79c57.91-28.67,96.86-56.47,119.06-84.97 c21.34-27.39,24.97-52.41,25.5-71.41c7.27,2.96,12.31,2.77,15.2-0.33l6.84-7.22c7.16-7.56-5.72-25.24-14.5-35.58l55.44-58.57 C418.61,191.94,420.38,188.7,417.48,182.63z M373.19,229.41l-8.93,9.42c-3.4-5.04-5.31-10.57-6.38-14.79 c3.82,0.59,7.32,0.72,9.69,0.72c0.63,0,1.2-0.01,1.69-0.02C370.47,226.36,371.78,227.93,373.19,229.41z M350.94,214.75l9.9-10.45 c0.54,3.57,1.69,8.21,4.06,13.16C361.12,217.29,355.55,216.68,350.94,214.75z M270.66,391.27l1.88-15.31l0.82-6.95 c0.26-1.98,0.65-3.91,1.31-6.44c2.04-7.61,5.56-15.47,11.06-24.73c4.14-6.94,9.26-14.09,16.11-22.52 c5.69-6.99,11.87-15.24,18.39-22.26c0,0-15.18,11.31-22.18,18.93c-1.23,1.08-26.32,23.29-40.07,50.52 c1.25-4.77,3.3-10.97,6.56-17.12l2.82-5.33l-4.39,4.14c-0.18,0.17-17.8,17.11-17.98,46.12l-7.38,6.86l6.43,13.7l-8.19-6.49 l6.39,21.56c-10.5,6.04-21.98,12.16-34.13,18.21c-5.76-2.88-10.95-5.54-15.81-8.11l2.86-74.22l-19.02-6.51l2.91-14.46l-36.74-28.25 c24.93-10.72,48.06-27.62,63.23-40.08c4.57-1.91,9.31-4.44,13.84-7.37c-3.01,3.14-6.21,5.94-9.46,8.27l-0.39,0.28l-0.02,0.48 c-0.26,4.93-2.37,9.65-4.1,12.74l-1.43,2.56l2.7-1.16c13.95-5.98,26.44-14.31,36.49-24.3c-2.39,4.59-5.19,9.18-8.05,13.16 l-3.82,5.31l5.24-3.93c14.16-10.63,25.66-24.66,33.38-40.7l6.42,24.14c-0.58,2.67-1.42,5.69-2.43,8.73l-0.06,0.16 c-1.07,3.05-2.18,6.2-3.5,9.21l-0.24,0.57c-0.57,1.32-1.16,2.69-1.82,3.98c-0.3,0.58-0.58,1.16-0.86,1.75 c-0.44,0.91-0.89,1.86-1.4,2.76c-0.33,0.59-0.64,1.19-0.96,1.79c-0.48,0.89-0.95,1.78-1.44,2.64l-2.63,4.36 c-0.52,0.91-1.11,1.77-1.73,2.67c-0.35,0.51-0.7,1.02-1.03,1.53l-0.18,0.26c-0.89,1.34-1.74,2.61-2.73,3.86l-3.02,4.06l-3.26,3.97 c-1.34,1.72-2.85,3.37-4.31,4.96c-0.82,0.89-1.64,1.79-2.42,2.69c-1.23,1.34-2.55,2.67-3.83,3.96c-1.11,1.12-2.26,2.27-3.37,3.46 l-6.17,6.58l7.46-5.07c1.29-0.88,2.58-1.81,3.83-2.71l0.45-0.33c0.4-0.3,0.8-0.58,1.21-0.88c1.01-0.72,2.06-1.47,3-2.32l3.93-3.38 c1.21-0.98,2.31-2.08,3.36-3.14l0.49-0.5c5.48-5.22,9.96-11.1,13.63-16.18c3.95-5.58,7.5-11.79,10.54-18.42 c0.78-1.6,1.46-3.26,2.12-4.89c0.53-1.2,0.96-2.45,1.38-3.65c0.16-0.46,0.32-0.91,0.5-1.4c0.65-2.01,1.32-4.15,1.88-6.37 l46.79,16.38c1.74,1.39,9.23,7.65,17.24,18.4c-2.08,29.56-13.46,65.68-80.6,109.79c-0.46-1.65-0.96-3.36-1.49-5.05 c-0.77-2.46-1.59-4.91-2.5-7.47L270.66,391.27z M166.31,400.22l4.77-0.34l-4.5-1.6c-9.35-3.32-18.03-9.69-24.81-18.14 c4.16,2.2,8.88,4.4,14.31,6.67l1.51,0.63l-0.12-1.63c-0.47-6.2-0.57-12.59-0.29-19c3.4,0.62,7.08,1.37,11.19,2.29 c4.8,1.14,9.14,2.31,13.25,3.57l5.83,1.78l-2.22,57.79c-7.78-4.23-15.23-8.49-22.17-12.68c-0.89-3.97-1.17-7.96-1.32-12.71 l-0.02-0.72l-0.69-0.21c-5.31-1.6-10.55-4.19-15.43-7.59C151.78,400.11,158.83,400.76,166.31,400.22z M182.43,370.87 c-3.67-2.3-7.83-4.32-12.72-6.19c-3.9-1.46-8.18-2.78-13.46-4.14c-4.61-1.16-9.23-2.14-13.72-2.89c-3.86-0.68-7.56-1.19-11.29-1.57 l-2.66-11.79l-0.51-2.19L94.26,334c1.54-3.8,3.14-7.22,4.87-10.41c2.81-5.14,5.5-9.51,8.23-13.38c3.03-4.37,6.25-8.58,9.56-12.53 c2.52-3,5.06-5.85,7.58-8.46l3.15,4.75c-0.71,1.64-1.5,3.1-2.37,4.37l-2.21,3.26l3.29,1.84c-5.09,6.82-8.99,14.67-11.32,22.78 l-1.18,4.12l2.88-3.18c1.3-1.44,2.65-2.99,3.96-4.49c-1.09,3.17-1.9,6.47-2.36,9.63l-0.14,0.97l0.96,0.16 c6.37,1.09,12,2.81,17.22,5.26l1.07,0.5l0.31-1.15c0.29-1.06,0.54-2.15,0.77-3.23c0.97,6.51,2.72,13.12,5.14,19.42l1.09,2.83 l0.93-3.35c0.84-3.04,1.76-6.37,2.81-9.53c0.08,0.94,0.17,1.88,0.25,2.82c0.21,2.46,0.43,4.91,0.67,7.4l0.11,1.13l1.1-0.25 c5.71-1.27,12.19-0.82,17.91,1.21l-0.72,3.62l19.9,6.81l-0.27,7.08L182.43,370.87z M69.63,273.93c6.53,0.86,12.86,1.54,18.86,2.02 c-0.96,16.67-0.63,30.79,3.84,45.06c-2.27,4.25-4.35,8.93-6.36,14.31l-1.4,3.79l16.96,4.05c-2.12,3.95-5.54,10.68-8.73,18.47 C71.07,333.41,67.72,307,69.63,273.93z M295.7,15.47c5.28,9.54,30.52,51.8,78.93,82.74c-6.81,10.32-26.33,45.4-30.47,113.19 l-11.85,12.52c-1.84-1.39-4.42-3.28-7.4-5.26c0.05-2.52,0.15-4.95,0.3-7.41c1.13-19.39,3.6-37.93,7.34-55.1 c5.96-10.76,8.79-18.08,9.3-19.45l1.39-3.82l-4.28-1.02c2.81-8.92,6.04-17.39,9.6-25.18l1.19-2.62l-2.3-1.75 C315.47,77.92,295.22,50.33,286,36.06l-1.07-1.65H131.32l-1.07,1.65c-9.22,14.27-29.46,41.86-61.45,66.25l-2.3,1.75l1.2,2.63 c6.3,13.73,11.5,29.52,15.45,46.93l-14.85,23.12c-7.33-45.82-21.58-70.77-26.69-78.52c48.43-30.94,73.67-73.2,78.95-82.74H295.7z M334.56,232.05c0.81,3.91,2.42,9.21,5.59,15.43c-0.38-0.34-0.77-0.68-1.15-1.04c-5.9-5.6-7.47-10.21-7.44-11.22L334.56,232.05z M138.67,276.25c23.85-1.77,46.6-6.42,67.73-13.86c-13.9,11.87-37.61,30.23-63.43,42.01l-9.67-5.42 C137.43,290.85,138.43,280.99,138.67,276.25z M135.25,41.65H281c11.24,17.07,30.64,41.94,59.8,64.66c-3.21,7.3-6.2,15.33-8.88,23.88 L129.37,81.65l-40.79,63.51c-3.55-14.09-7.95-27.15-13.11-38.85C104.66,83.54,124.04,58.69,135.25,41.65z M321.98,173.28 c-1.9,12.04-3.24,24.65-4.01,37.54c-0.06,1.15-0.12,2.31-0.17,3.48c-9.14-5.07-15.85-6.53-19.97-4.33c-0.68,0.36-1.3,0.83-1.86,1.4 l-6.86,7.25c-3.79,4-2.41,11.29,4.09,21.66c0.89,1.42,1.88,2.85,2.72,4.05l-13.13,13.89l-8.79-33.06 c6.6-5.24,12.89-10.83,18.72-16.62C303.6,197.73,313.42,185.89,321.98,173.28z M95.88,273.39l1.92-4.3 c2.44,0.37,4.78,0.61,6.96,0.72l0.64,7.12l3.22,0.07c2.06,0.04,4.77,0.09,7.48,0.09c0.12,0,0.23,0,0.35,0l3.96,5.95 c-2.96,3.01-5.92,6.28-9.04,9.98c-3.47,4.15-6.82,8.55-9.96,13.06c-1.31,1.86-2.62,3.85-3.98,6.04 C94.86,300.31,94.94,288,95.88,273.39z M341.8,279.53c-6.22-4.38-12.82-9.83-19.14-15.82c-9.79-9.25-18.06-18.94-23.31-27.28 c-5.46-8.68-5.29-12.39-4.96-12.84l0.6-0.63c1.01,2.94,2.71,6.33,5.08,10.1c5.53,8.81,14.22,19,24.46,28.69 c6.18,5.85,12.71,11.27,18.92,15.72L341.8,279.53z M107.2,129.57c1.37,0.07,2.85,0.1,4.41,0.1c13.51,0,46.8-2.72,67.75-27.6 c1.28,3.53,4.13,12.88,3.79,25.39c-0.4,14.75-5.45,37.05-27.24,59.53l-3.25,3.36l4.34-1.73c0.38-0.15,34.33-13.93,50.66-38.44 c-3.06,8.96-9.17,23.39-19.63,35.12l-4.92,5.51l6.21-4.01c0.17-0.11,14.32-9.31,23.27-19.4c-6.29,13.75-24,44.33-62.1,59.91 l-8.06,3.3l8.6-1.38c2.09-0.34,51.63-8.56,90.86-36.62l4.49-3.21l-20.78,5.58c10.38-6.88,31.86-22.78,44.01-43.5 c-1.34,5.66-3.82,13.84-7.96,19.95l-3.21,4.75l4.63-3.38c0.16-0.12,15.95-11.76,25.38-30.08l39.21,7.16 c-7.38,13.77-20.2,33.88-40.18,53.7c-31.18,30.91-86.88,67.41-175.44,66.27l-3.73-42.07L90,268.83 c-20.84-1.63-42.82-5.23-65.36-10.7L107.2,129.57z M306.19,229.21c-5.46-8.69-5.29-12.4-4.96-12.85c0.88-0.86,9.25,0.18,26.06,12.86 l-1.15,1.21c-2.61,2.76-2.33,7.21,0.79,12.54l0.06,0.12c0.6,1,1.24,1.96,1.88,2.81c3.1,4.43,10.9,14.54,21.16,20.65 c-4.45-0.49-11.41-2.01-16.86-6.66c-1.21-1.09-2.43-2.21-3.67-3.39C319.68,247.2,311.4,237.51,306.19,229.21z M345.73,220.26 c1.33,0.72,2.79,1.35,4.34,1.89c0.77,4.29,3.04,13.73,9.11,22.04l-7.72,8.16c-9.13-13.45-10.35-23.66-10.48-27.07L345.73,220.26z M367.59,197.16l9.73-10.28c1.1,7.04,3.81,16.89,10.3,27.27l-9.45,9.98C368.27,213.49,367.52,201.27,367.59,197.16z M397.45,203.77 l-4.67,4.93c-1.05-1.8-2.03-3.64-2.9-5.5C392.38,203.47,394.92,203.66,397.45,203.77z M393.18,170.54 c1.68,0.19,6.13,1.95,11.29,6.84c0.36,0.35,0.72,0.69,1.07,1.06l0.27,0.28c0.25,0.27,0.5,0.52,0.76,0.82 c0.11,0.11,0.2,0.21,0.35,0.4l0.19,0.21c0.12,0.13,0.23,0.26,0.34,0.39l1.54,1.99c1.95,2.74,2.66,4.73,2.82,5.64 c-1.53-0.18-5.87-1.73-11.21-6.79C395.25,176.32,393.45,172.04,393.18,170.54z M383.89,179.96l3.66-3.87 c1.66,3.46,4.53,7.2,8.08,10.55c3.55,3.36,7.46,6.03,10.96,7.49l-2.39,2.53c-8.39,0.06-14.57-0.71-17.34-1.15 C384.5,188.25,383.99,182.48,383.89,179.96z M218.66,235.04c12.88-5.57,25.11-12.51,36.34-20.63c11.42-8.26,21.83-17.7,30.96-28.06 c4.49-5.08,8.82-10.62,12.86-16.48c3.46-5.2,6.97-12.92,9.91-19.64c0,0-16.56,21.08-27.2,31.97c-5.62,5.62-10.33,10.01-14.84,13.82 c-5.22,4.53-10.57,8.74-15.93,12.53c-1.96,1.48-4.03,2.89-6.04,4.25c-0.76,0.51-1.51,1.03-2.23,1.53l-2.01,1.28 c-2.15,1.38-4.37,2.8-6.63,4.11c-5.59,3.5-11.6,6.61-17.4,9.61l-0.35,0.18c-11.49,5.68-23.51,11.73-37.43,16.55 C178.66,246.07,205.46,240.68,218.66,235.04z M232.16,307.43l0.68-0.7c2.82-2.95,5.29-5.78,7.52-8.64l0-0.01 c4.8-6.24,8.18-11.66,10.65-17.04l2.5-5.46l-5.06,5.32c-4.33,4.56-8.42,8.86-12.68,13.15c-2.39,2.4-4.76,4.73-7.06,6.93 c-1.78,0.87-3.9,1.81-6.15,2.73c-1.1,0.44-2.2,0.87-3.35,1.28c-1.08,0.43-2.19,0.82-3.33,1.21c-4.01,1.39-8.38,2.7-13.72,4.11 c-4.95,1.22-9.57,2.18-14.12,2.96l-22.44,3.85l8.11,0.61c2.35,0.18,4.87,0.34,7.46,0.37l1.4-0.02c1.98-0.02,4.02-0.05,6.03-0.22 l3.73-0.29l3.65-0.44c1.84-0.2,3.68-0.5,5.47-0.79c0.63-0.1,1.26-0.21,1.91-0.31c3.79-0.65,7.62-1.49,11.43-2.5 c-2.32,1.93-4.85,3.96-7.72,6.2c-1.27,0.95-2.58,1.93-3.86,2.94c-0.7,0.51-1.42,1.01-2.14,1.51c-0.61,0.42-1.23,0.85-1.84,1.29 l-1.93,1.41l-2.06,1.34c-1.31,0.86-2.72,1.79-4.12,2.82l-4.51,3.28l5.36-1.51c1.52-0.43,3.05-0.93,4.53-1.42l0.24-0.08 c0.9-0.3,1.69-0.58,2.44-0.87l2.3-1c0.52-0.25,1.04-0.48,1.57-0.72c1-0.46,2-0.92,3.01-1.42c1.47-0.8,2.92-1.63,4.4-2.48 c6.03-3.65,11.47-7.69,16.17-12.01C228.38,311.23,230.13,309.53,232.16,307.43z M172.47,141.61l1-2.62l-2.43,1.4 c-21.51,12.37-54.78,15.55-55.11,15.58l-3.58,0.33l3.24,1.57c8.42,4.08,18.59,4.63,24.71,4.51c-14.11,5.51-29.17,4.53-29.33,4.52 l-0.61-0.04l-17.4,29.05l2.17-0.39C155.49,184.6,172.31,142.04,172.47,141.61z M315.17,361.62c8.29-11.3,12.69-25.38,12.09-38.63 l-0.15-3.28l-1.7,2.81c-9.93,16.38-23.56,30.73-39.41,41.48l-4.29,2.91l5.06-1.11c5.24-1.14,10.23-2.95,14.9-5.38 c-6.52,8.88-14.72,16.88-21.37,23.05l-2.94,2.73l3.88-1.03C294.21,381.73,306.9,372.93,315.17,361.62z" fill="#012130"/></g></svg>